<mxfile host="Electron" agent="Mozilla/5.0 (Windows NT 10.0; Win64; x64) AppleWebKit/537.36 (KHTML, like Gecko) draw.io/24.7.8 Chrome/128.0.6613.36 Electron/32.0.1 Safari/537.36" version="24.7.8">
  <diagram id="C5RBs43oDa-KdzZeNtuy" name="Page-1">
    <mxGraphModel dx="924" dy="845" grid="1" gridSize="10" guides="1" tooltips="1" connect="1" arrows="1" fold="1" page="1" pageScale="1" pageWidth="827" pageHeight="1169" math="0" shadow="0">
      <root>
        <mxCell id="WIyWlLk6GJQsqaUBKTNV-0" />
        <mxCell id="WIyWlLk6GJQsqaUBKTNV-1" parent="WIyWlLk6GJQsqaUBKTNV-0" />
        <mxCell id="WIyWlLk6GJQsqaUBKTNV-2" value="" style="rounded=0;html=1;jettySize=auto;orthogonalLoop=1;fontSize=11;endArrow=block;endFill=0;endSize=8;strokeWidth=1;shadow=0;labelBackgroundColor=none;edgeStyle=orthogonalEdgeStyle;" parent="WIyWlLk6GJQsqaUBKTNV-1" source="WIyWlLk6GJQsqaUBKTNV-3" edge="1">
          <mxGeometry relative="1" as="geometry">
            <mxPoint x="440" y="340" as="targetPoint" />
          </mxGeometry>
        </mxCell>
        <mxCell id="WIyWlLk6GJQsqaUBKTNV-3" value="&lt;font face=&quot;Times New Roman&quot;&gt;选择一个&lt;/font&gt;&lt;div&gt;&lt;font face=&quot;Times New Roman&quot;&gt;可行的初始点&lt;i&gt;x&lt;sup&gt;0&lt;/sup&gt;&lt;/i&gt;&lt;/font&gt;&lt;/div&gt;" style="rounded=1;whiteSpace=wrap;html=1;fontSize=12;glass=0;strokeWidth=1;shadow=0;" parent="WIyWlLk6GJQsqaUBKTNV-1" vertex="1">
          <mxGeometry x="380" y="250" width="120" height="40" as="geometry" />
        </mxCell>
        <mxCell id="cJ4FsitTvuNM7bEtWHX5-0" value="" style="rounded=0;html=1;jettySize=auto;orthogonalLoop=1;fontSize=11;endArrow=block;endFill=0;endSize=8;strokeWidth=1;shadow=0;labelBackgroundColor=none;edgeStyle=orthogonalEdgeStyle;" parent="WIyWlLk6GJQsqaUBKTNV-1" source="cJ4FsitTvuNM7bEtWHX5-1" edge="1">
          <mxGeometry relative="1" as="geometry">
            <mxPoint x="440" y="250" as="targetPoint" />
          </mxGeometry>
        </mxCell>
        <mxCell id="cJ4FsitTvuNM7bEtWHX5-1" value="程序初始化" style="rounded=1;whiteSpace=wrap;html=1;fontSize=12;glass=0;strokeWidth=1;shadow=0;" parent="WIyWlLk6GJQsqaUBKTNV-1" vertex="1">
          <mxGeometry x="380" y="160" width="120" height="40" as="geometry" />
        </mxCell>
        <mxCell id="cJ4FsitTvuNM7bEtWHX5-22" value="&lt;div&gt;&lt;font face=&quot;Times New Roman&quot;&gt;产生&lt;i&gt;k&lt;/i&gt;个&lt;i&gt;n&lt;/i&gt;维随机单位向量&lt;i&gt;e&lt;sup&gt;j&lt;/sup&gt;&lt;/i&gt;&lt;/font&gt;&lt;/div&gt;" style="rounded=1;whiteSpace=wrap;html=1;fontSize=12;glass=0;strokeWidth=1;shadow=0;" parent="WIyWlLk6GJQsqaUBKTNV-1" vertex="1">
          <mxGeometry x="380" y="340" width="120" height="40" as="geometry" />
        </mxCell>
        <mxCell id="cJ4FsitTvuNM7bEtWHX5-25" value="" style="rounded=0;html=1;jettySize=auto;orthogonalLoop=1;fontSize=11;endArrow=block;endFill=0;endSize=8;strokeWidth=1;shadow=0;labelBackgroundColor=none;edgeStyle=orthogonalEdgeStyle;" parent="WIyWlLk6GJQsqaUBKTNV-1" edge="1">
          <mxGeometry relative="1" as="geometry">
            <mxPoint x="440" y="380" as="sourcePoint" />
            <mxPoint x="440" y="430" as="targetPoint" />
          </mxGeometry>
        </mxCell>
        <mxCell id="cJ4FsitTvuNM7bEtWHX5-26" value="&lt;font face=&quot;Times New Roman&quot;&gt;取试验步长&lt;/font&gt;&lt;i&gt;&lt;span style=&quot;font-family: &amp;quot;Times New Roman&amp;quot;;&quot;&gt;α&lt;/span&gt;&lt;sub style=&quot;font-family: &amp;quot;Times New Roman&amp;quot;;&quot;&gt;0&lt;/sub&gt;&lt;/i&gt;&lt;font face=&quot;Times New Roman&quot;&gt;，计算&lt;i&gt;k&lt;/i&gt;个随机点&lt;i&gt;x&lt;span style=&quot;font-size: 10px;&quot;&gt;&lt;sup&gt;j&lt;/sup&gt;&lt;/span&gt;&lt;/i&gt;&lt;/font&gt;" style="rounded=1;whiteSpace=wrap;html=1;fontSize=12;glass=0;strokeWidth=1;shadow=0;" parent="WIyWlLk6GJQsqaUBKTNV-1" vertex="1">
          <mxGeometry x="380" y="430" width="120" height="40" as="geometry" />
        </mxCell>
        <mxCell id="NT-yCiqvpGy_-EhJHpe7-0" value="" style="rounded=0;html=1;jettySize=auto;orthogonalLoop=1;fontSize=11;endArrow=block;endFill=0;endSize=8;strokeWidth=1;shadow=0;labelBackgroundColor=none;edgeStyle=orthogonalEdgeStyle;" edge="1" parent="WIyWlLk6GJQsqaUBKTNV-1">
          <mxGeometry relative="1" as="geometry">
            <mxPoint x="440" y="470" as="sourcePoint" />
            <mxPoint x="440" y="520" as="targetPoint" />
          </mxGeometry>
        </mxCell>
        <mxCell id="NT-yCiqvpGy_-EhJHpe7-1" value="&lt;font face=&quot;Times New Roman&quot;&gt;找出可行随机点&lt;i&gt;x&lt;/i&gt;&lt;i style=&quot;font-size: 8.33333px;&quot;&gt;&lt;sup&gt;L&lt;/sup&gt;，&lt;/i&gt;&lt;font style=&quot;&quot;&gt;产生可行搜索方向&lt;i style=&quot;&quot;&gt;&lt;font style=&quot;font-size: 8px;&quot;&gt;d=&lt;/font&gt;&lt;/i&gt;&lt;/font&gt;&lt;/font&gt;&lt;i style=&quot;font-family: &amp;quot;Times New Roman&amp;quot;;&quot;&gt;x&lt;/i&gt;&lt;i style=&quot;font-family: &amp;quot;Times New Roman&amp;quot;; font-size: 8.33333px;&quot;&gt;&lt;sup&gt;L&lt;/sup&gt;&lt;/i&gt;&lt;i&gt;&lt;font size=&quot;3&quot;&gt;&lt;span style=&quot;font-family: &amp;quot;Times New Roman&amp;quot;;&quot;&gt;-&lt;/span&gt;&lt;/font&gt;&lt;/i&gt;&lt;i style=&quot;font-family: &amp;quot;Times New Roman&amp;quot;;&quot;&gt;x&lt;sup&gt;0&lt;/sup&gt;&lt;/i&gt;" style="rounded=1;whiteSpace=wrap;html=1;fontSize=12;glass=0;strokeWidth=1;shadow=0;" vertex="1" parent="WIyWlLk6GJQsqaUBKTNV-1">
          <mxGeometry x="360" y="520" width="160" height="50" as="geometry" />
        </mxCell>
        <mxCell id="NT-yCiqvpGy_-EhJHpe7-2" value="" style="rounded=0;html=1;jettySize=auto;orthogonalLoop=1;fontSize=11;endArrow=block;endFill=0;endSize=8;strokeWidth=1;shadow=0;labelBackgroundColor=none;edgeStyle=orthogonalEdgeStyle;" edge="1" parent="WIyWlLk6GJQsqaUBKTNV-1">
          <mxGeometry relative="1" as="geometry">
            <mxPoint x="439.43" y="570" as="sourcePoint" />
            <mxPoint x="439.43" y="620" as="targetPoint" />
          </mxGeometry>
        </mxCell>
        <mxCell id="NT-yCiqvpGy_-EhJHpe7-3" value="&lt;font face=&quot;Times New Roman&quot;&gt;沿可行搜索方向&lt;i&gt;d&lt;/i&gt;以步长&lt;i&gt;α&lt;/i&gt;&lt;/font&gt;&lt;div&gt;&lt;font face=&quot;Times New Roman&quot;&gt;迭代计算，得到新点&lt;/font&gt;&lt;i style=&quot;background-color: initial; font-family: &amp;quot;Times New Roman&amp;quot;;&quot;&gt;x&lt;sub&gt;n&lt;/sub&gt;&lt;/i&gt;&lt;/div&gt;" style="rounded=1;whiteSpace=wrap;html=1;fontSize=12;glass=0;strokeWidth=1;shadow=0;" vertex="1" parent="WIyWlLk6GJQsqaUBKTNV-1">
          <mxGeometry x="360" y="620" width="160" height="50" as="geometry" />
        </mxCell>
        <mxCell id="NT-yCiqvpGy_-EhJHpe7-4" value="是否&lt;div&gt;满足收敛条件&lt;/div&gt;" style="rhombus;whiteSpace=wrap;html=1;shadow=0;fontFamily=Helvetica;fontSize=12;align=center;strokeWidth=1;spacing=6;spacingTop=-4;" vertex="1" parent="WIyWlLk6GJQsqaUBKTNV-1">
          <mxGeometry x="390" y="720" width="100" height="80" as="geometry" />
        </mxCell>
        <mxCell id="NT-yCiqvpGy_-EhJHpe7-5" value="" style="rounded=0;html=1;jettySize=auto;orthogonalLoop=1;fontSize=11;endArrow=block;endFill=0;endSize=8;strokeWidth=1;shadow=0;labelBackgroundColor=none;edgeStyle=orthogonalEdgeStyle;" edge="1" parent="WIyWlLk6GJQsqaUBKTNV-1">
          <mxGeometry relative="1" as="geometry">
            <mxPoint x="439.65999999999997" y="670" as="sourcePoint" />
            <mxPoint x="439.65999999999997" y="720" as="targetPoint" />
          </mxGeometry>
        </mxCell>
        <mxCell id="NT-yCiqvpGy_-EhJHpe7-6" value="是" style="edgeStyle=orthogonalEdgeStyle;rounded=0;html=1;jettySize=auto;orthogonalLoop=1;fontSize=11;endArrow=block;endFill=0;endSize=8;strokeWidth=1;shadow=0;labelBackgroundColor=none;exitX=0.5;exitY=1;exitDx=0;exitDy=0;" edge="1" parent="WIyWlLk6GJQsqaUBKTNV-1">
          <mxGeometry x="-0.219" y="10" relative="1" as="geometry">
            <mxPoint as="offset" />
            <mxPoint x="439.71000000000004" y="800" as="sourcePoint" />
            <mxPoint x="439.71000000000004" y="850.689655172414" as="targetPoint" />
          </mxGeometry>
        </mxCell>
        <mxCell id="NT-yCiqvpGy_-EhJHpe7-7" value="结束" style="rounded=1;whiteSpace=wrap;html=1;fontSize=12;glass=0;strokeWidth=1;shadow=0;" vertex="1" parent="WIyWlLk6GJQsqaUBKTNV-1">
          <mxGeometry x="410" y="850" width="60" height="30" as="geometry" />
        </mxCell>
        <mxCell id="NT-yCiqvpGy_-EhJHpe7-8" value="" style="edgeStyle=elbowEdgeStyle;elbow=vertical;endArrow=classic;html=1;curved=0;rounded=0;endSize=8;startSize=8;exitX=0;exitY=0.5;exitDx=0;exitDy=0;" edge="1" parent="WIyWlLk6GJQsqaUBKTNV-1" source="NT-yCiqvpGy_-EhJHpe7-4" target="cJ4FsitTvuNM7bEtWHX5-22">
          <mxGeometry width="50" height="50" relative="1" as="geometry">
            <mxPoint x="290" y="900" as="sourcePoint" />
            <mxPoint x="290" y="460" as="targetPoint" />
            <Array as="points">
              <mxPoint x="280" y="560" />
            </Array>
          </mxGeometry>
        </mxCell>
        <mxCell id="NT-yCiqvpGy_-EhJHpe7-10" value="&lt;font style=&quot;font-size: 11px;&quot;&gt;否&lt;/font&gt;" style="text;html=1;align=center;verticalAlign=middle;resizable=0;points=[];autosize=1;strokeColor=none;fillColor=none;" vertex="1" parent="WIyWlLk6GJQsqaUBKTNV-1">
          <mxGeometry x="310" y="730" width="30" height="30" as="geometry" />
        </mxCell>
        <mxCell id="NT-yCiqvpGy_-EhJHpe7-11" value="&lt;font face=&quot;Times New Roman&quot;&gt;令&lt;/font&gt;&lt;i style=&quot;font-family: &amp;quot;Times New Roman&amp;quot;;&quot;&gt;x&lt;sup&gt;0&lt;/sup&gt;&lt;/i&gt;&lt;span style=&quot;font-family: &amp;quot;Times New Roman&amp;quot;;&quot;&gt;=&lt;/span&gt;&lt;i style=&quot;font-family: &amp;quot;Times New Roman&amp;quot;;&quot;&gt;x&lt;sub&gt;n&lt;/sub&gt;&lt;/i&gt;" style="rounded=1;whiteSpace=wrap;html=1;fontSize=12;glass=0;strokeWidth=1;shadow=0;" vertex="1" parent="WIyWlLk6GJQsqaUBKTNV-1">
          <mxGeometry x="220" y="530" width="120" height="40" as="geometry" />
        </mxCell>
      </root>
    </mxGraphModel>
  </diagram>
</mxfile>
